<?xml version="1.0" encoding="UTF-8" standalone="no"?>
<svg
   xmlns:dc="http://purl.org/dc/elements/1.1/"
   xmlns:cc="http://creativecommons.org/ns#"
   xmlns:rdf="http://www.w3.org/1999/02/22-rdf-syntax-ns#"
   xmlns:svg="http://www.w3.org/2000/svg"
   xmlns="http://www.w3.org/2000/svg"
   xmlns:sodipodi="http://sodipodi.sourceforge.net/DTD/sodipodi-0.dtd"
   xmlns:inkscape="http://www.inkscape.org/namespaces/inkscape"
   inkscape:export-ydpi="96"
   inkscape:export-xdpi="96"
   inkscape:export-filename="C:\Users\scott\Documents\GitHub\swharden.com\icon\favicon.png"
   sodipodi:docname="favicon-s3.svg"
   inkscape:version="1.0 (4035a4fb49, 2020-05-01)"
   id="svg8"
   version="1.1"
   viewBox="0 0 67.73248 67.73248"
   height="256"
   width="256">
  <defs
     id="defs2" />
  <sodipodi:namedview
     borderlayer="true"
     inkscape:window-maximized="1"
     inkscape:window-y="-8"
     inkscape:window-x="1912"
     inkscape:window-height="1018"
     inkscape:window-width="1920"
     units="px"
     showgrid="false"
     inkscape:document-rotation="0"
     inkscape:current-layer="layer1"
     inkscape:document-units="px"
     inkscape:cy="132.92646"
     inkscape:cx="166.57135"
     inkscape:zoom="2.5544983"
     inkscape:pageshadow="2"
     inkscape:pageopacity="0"
     borderopacity="1.0"
     bordercolor="#666666"
     pagecolor="#ffffff"
     id="base">
    <inkscape:grid
       spacingy="2.11664"
       spacingx="2.11664"
       id="grid833"
       type="xygrid" />
  </sodipodi:namedview>
  <metadata
     id="metadata5">
    <rdf:RDF>
      <cc:Work
         rdf:about="">
        <dc:format>image/svg+xml</dc:format>
        <dc:type
           rdf:resource="http://purl.org/dc/dcmitype/StillImage" />
        <dc:title></dc:title>
      </cc:Work>
    </rdf:RDF>
  </metadata>
  <g
     id="layer1"
     inkscape:groupmode="layer"
     inkscape:label="Layer 1">
    <g
       style="opacity:1;fill:#003366;fill-opacity:1"
       id="g1133" />
    <g
       style="opacity:1;fill:#003366;fill-opacity:1"
       id="g1139" />
    <g
       style="opacity:1;fill:#003366;fill-opacity:1"
       id="g1153" />
    <g
       style="fill:#003366;fill-opacity:1"
       transform="matrix(1.3209581,0,0,1.3209581,-9.2015251,-10.337044)"
       id="g1336">
      <g
         id="g1252"
         transform="matrix(0.80914765,0,0,0.80914765,5.6317876,8.1189223)"
         style="fill:#003366;fill-opacity:1">
        <path
           d="M 39.339522,9.4746544 V 26.041467 H 28.306635 c 1.70362,1.504628 3.618496,3.663898 5.277764,6.841577 h 5.755123 v 23.224603 h 7.388869 V 32.883044 h 9.264143 v 23.224603 h 7.388868 V 9.4746544 H 55.992534 V 26.041467 H 46.728391 V 9.4746544 Z"
           style="color:#000000;font-style:normal;font-variant:normal;font-weight:normal;font-stretch:normal;font-size:medium;line-height:normal;font-family:sans-serif;font-variant-ligatures:normal;font-variant-position:normal;font-variant-caps:normal;font-variant-numeric:normal;font-variant-alternates:normal;font-variant-east-asian:normal;font-feature-settings:normal;font-variation-settings:normal;text-indent:0;text-align:start;text-decoration:none;text-decoration-line:none;text-decoration-style:solid;text-decoration-color:#000000;letter-spacing:normal;word-spacing:normal;text-transform:none;writing-mode:lr-tb;direction:ltr;text-orientation:mixed;dominant-baseline:auto;baseline-shift:baseline;text-anchor:start;white-space:normal;shape-padding:0;shape-margin:0;inline-size:0;clip-rule:nonzero;display:inline;overflow:visible;visibility:visible;opacity:1;isolation:auto;mix-blend-mode:normal;color-interpolation:sRGB;color-interpolation-filters:linearRGB;solid-color:#000000;solid-opacity:1;vector-effect:none;fill:#003366;fill-opacity:1;fill-rule:nonzero;stroke:none;stroke-width:6.8416;stroke-linecap:butt;stroke-linejoin:miter;stroke-miterlimit:4;stroke-dasharray:none;stroke-dashoffset:0;stroke-opacity:1;color-rendering:auto;image-rendering:auto;shape-rendering:auto;text-rendering:auto;enable-background:accumulate;stop-color:#000000;stop-opacity:1"
           id="path1127" />
        <path
           sodipodi:nodetypes="ssssszzsssssccssssccsscsccs"
           d="m 18.013775,7.8083773 c -0.266927,-0.00205 -0.532692,0.00445 -0.797763,0.018703 -4.241155,0.2280948 -8.3640215,2.7511507 -9.9521229,7.0782227 -0.7327401,1.996486 -0.9277235,4.059572 -0.4155529,5.929148 0.5121722,1.869576 1.6329217,3.370922 2.9080559,4.613368 1.2193179,1.188059 2.3901069,1.724309 4.5946629,3.362644 2.204556,1.638335 3.560392,2.563808 6.039748,4.841066 2.479356,2.277258 3.786768,5.013576 3.989631,7.72717 0.236816,3.167729 -0.827819,5.576219 -2.975552,6.69113 -2.54348,1.320347 -5.905854,1.37933 -8.347651,0.338299 -2.441796,-1.041032 -3.9234852,-2.693943 -3.8944853,-5.738856 0.031474,-3.305234 1.2388713,-4.963167 3.7285893,-6.521987 0.762952,-0.477684 1.689679,-0.887205 2.720204,-1.248281 -2.019507,-1.509839 -4.22872,-2.982514 -6.0332409,-4.044119 -3.8113443,2.386295 -6.6111957,6.522479 -6.6610422,11.755833 -0.052325,5.493674 3.4299852,9.724469 7.6930121,11.541956 4.26303,1.817493 9.342915,1.708808 13.671766,-0.538344 4.724601,-2.452591 6.701914,-7.704249 6.328438,-12.699978 C 30.236996,35.918626 27.69046,30.777168 23.019113,27.411734 l -0.676595,-0.488743 c -3.594274,-2.542357 -6.762295,-4.518802 -8.228107,-5.947039 -0.793135,-0.772802 -1.115099,-1.329906 -1.241779,-1.792326 -0.126682,-0.46242 -0.155824,-1.006225 0.25535,-2.126556 0.699736,-1.906561 2.240898,-2.876084 4.423074,-2.993445 2.182174,-0.117365 4.837887,0.828548 6.905823,3.297587 L 29.2459,13.350436 C 26.187899,9.6993 22.017685,7.8386905 18.013775,7.8083773 Z"
           style="color:#000000;font-style:normal;font-variant:normal;font-weight:normal;font-stretch:normal;font-size:medium;line-height:normal;font-family:sans-serif;font-variant-ligatures:normal;font-variant-position:normal;font-variant-caps:normal;font-variant-numeric:normal;font-variant-alternates:normal;font-variant-east-asian:normal;font-feature-settings:normal;font-variation-settings:normal;text-indent:0;text-align:start;text-decoration:none;text-decoration-line:none;text-decoration-style:solid;text-decoration-color:#000000;letter-spacing:normal;word-spacing:normal;text-transform:none;writing-mode:lr-tb;direction:ltr;text-orientation:mixed;dominant-baseline:auto;baseline-shift:baseline;text-anchor:start;white-space:normal;shape-padding:0;shape-margin:0;inline-size:0;clip-rule:nonzero;display:inline;overflow:visible;visibility:visible;opacity:1;isolation:auto;mix-blend-mode:normal;color-interpolation:sRGB;color-interpolation-filters:linearRGB;solid-color:#000000;solid-opacity:1;vector-effect:none;fill:#003366;fill-opacity:1;fill-rule:nonzero;stroke:none;stroke-width:6.24549;stroke-linecap:butt;stroke-linejoin:miter;stroke-miterlimit:4;stroke-dasharray:none;stroke-dashoffset:0;stroke-opacity:1;color-rendering:auto;image-rendering:auto;shape-rendering:auto;text-rendering:auto;enable-background:accumulate;stop-color:#000000;stop-opacity:1"
           id="path1131" />
      </g>
    </g>
  </g>
</svg>
